<svg viewBox="0 0 64 64" xmlns="http://www.w3.org/2000/svg"><path d="M19 57h7.77c-.48.53-.77 1.23-.77 2s.29 1.47.77 2H19c-8.84 0-16-7.16-16-16V34.73c.29.17.64.27 1 .27h3v10c0 6.63 5.37 12 12 12z" fill="#969faa"/><path d="M35 56a2.996 2.996 0 0 1 2.12 5.12c-.54.54-1.29.88-2.12.88h-6c-.89 0-1.69-.38-2.23-1-.48-.53-.77-1.23-.77-2s.29-1.47.77-2A2.993 2.993 0 0 1 29 56z" fill="#fcd770"/><path d="M7.09 34.97 7 35H4c-.36 0-.71-.1-1-.27-.6-.35-1-.99-1-1.73v-8c0-1.1.9-2 2-2h2.65c-.28 1.27-.48 2.59-.57 3.93-.05.35-.08.71-.08 1.07 0 .11 0 .23.01.34-.01.22-.01.44-.01.66v.19c.02 2.04.4 3.98 1.09 5.78zM62 25v8c0 1.1-.9 2-2 2h-3.1c.7-1.81 1.08-3.76 1.1-5.81V29c0-.22 0-.44-.01-.66.01-.11.01-.23.01-.34 0-.36-.03-.72-.08-1.07-.09-1.34-.29-2.66-.57-3.93H60c1.1 0 2 .9 2 2z" fill="#aab2bd"/><path d="M52.14 41.75c.55.72.86 1.46.86 2.25 0 4.42-9.4 8-21 8s-21-3.58-21-8c0-.79.31-1.53.86-2.25C14.91 44.4 18.92 46 23.26 46h17.48c4.34 0 8.35-1.6 11.4-4.25z" fill="#ccd1d9"/><path d="M57.35 23c.28 1.27.48 2.59.57 3.93C56.91 19.7 45.69 14 32 14S7.09 19.7 6.08 26.93c.09-1.34.29-2.66.57-3.93 1.94-8.88 8.09-16.1 16.17-19.26L24 10h16l1.18-6.26C49.26 6.9 55.41 14.12 57.35 23z" fill="#e6e9ed"/><path d="M41.18 3.74 40 10H24l-1.18-6.26c1.47-.58 3-1.03 4.58-1.31L28 6h8l.6-3.57c1.58.28 3.11.73 4.58 1.31z" fill="#ffeaa7"/><path d="M36.6 2.43 36 6h-8l-.6-3.57C28.89 2.14 30.43 2 32 2s3.11.14 4.6.43z" fill="#fcd770"/><path d="M11.86 41.75a16.862 16.862 0 0 1-4.77-6.78c-.69-1.8-1.07-3.74-1.09-5.78V29c0-.22 0-.44.01-.66C6.34 35.91 17.85 42 32 42s25.66-6.09 25.99-13.66c.01.22.01.44.01.66v.19c-.02 2.05-.4 4-1.1 5.81-1 2.63-2.66 4.94-4.76 6.75A17.364 17.364 0 0 1 40.74 46H23.26c-4.34 0-8.35-1.6-11.4-4.25z" fill="#e6e9ed"/><path d="M57.92 26.93c.04.46.06.93.07 1.41C57.66 35.91 46.15 42 32 42S6.34 35.91 6.01 28.34c.01-.48.03-.95.07-1.41C7.09 19.7 18.31 14 32 14s24.91 5.7 25.92 12.93z" fill="#69d6f4"/><path d="M55 28h-2c0 2.601-4.282 6.312-12.216 8.07l.433 1.953C49.461 36.196 55 32.168 55 28zm-23-9v-2c-.691 0-1.373.016-2.044.046l.089 1.998A44.853 44.853 0 0 1 32 19zm-3.909.177-.183-1.992C17.306 18.156 9 22.906 9 28h2c0-3.505 6.868-7.887 17.091-8.823z"/><path d="M60 22h-1.854C55.141 9.937 44.558 1 32 1S8.859 9.937 5.854 22H4c-1.654 0-3 1.346-3 3v8c0 .883.391 1.67 1 2.22V45c0 9.374 7.626 17 17 17h7.382c.703.615 1.612 1 2.618 1h6c2.206 0 4-1.794 4-4s-1.794-4-4-4h-6a3.966 3.966 0 0 0-2.618 1H19c-6.065 0-11-4.935-11-11v-6.131a18.139 18.139 0 0 0 2.563 3.049C10.194 42.596 10 43.293 10 44c0 5.131 9.458 9 22 9s22-3.869 22-9c0-.707-.194-1.404-.563-2.082A18.012 18.012 0 0 0 57.568 36H60c1.654 0 3-1.346 3-3v-8c0-1.654-1.346-3-3-3zM7.081 27C8.067 20.298 18.863 15 32 15s23.933 5.298 24.919 12c.033.442.054.886.065 1.333C56.642 35.347 45.57 41 32 41S7.358 35.347 7.016 28.333c.011-.447.033-.891.065-1.333zM27.153 7h9.694l.563-3.38a24.26 24.26 0 0 1 2.625.765L39.17 9H24.83l-.865-4.614a23.972 23.972 0 0 1 2.625-.765zm8.291-3.747L35.153 5h-6.306l-.291-1.747C29.683 3.09 30.831 3 32 3s2.317.09 3.444.253zm-13.372 1.89L23.17 11h17.66l1.098-5.857c6.447 2.913 11.487 8.572 13.756 15.549C51.134 16.07 42.333 13 32 13s-19.134 3.07-23.684 7.693c2.269-6.978 7.309-12.636 13.756-15.55zM3 25c0-.552.449-1 1-1h1.44a29.048 29.048 0 0 0-.347 2.777A8.87 8.87 0 0 0 5 28c0 .12.011.238.016.357-.005.215-.016.427-.016.643v.201c.012 1.664.275 3.27.724 4.799H4c-.551 0-1-.448-1-1zm26 32h6c1.103 0 2 .897 2 2s-.897 2-2 2h-6c-1.103 0-2-.897-2-2s.897-2 2-2zm-10 1h6.142c-.084.322-.142.653-.142 1s.058.678.142 1H19c-8.271 0-15-6.729-15-15v-9h2v9c0 7.168 5.832 13 13 13zm33-14c0 3.311-8.214 7-20 7s-20-3.689-20-7c0-.245.052-.495.145-.748A18.344 18.344 0 0 0 23.258 47h17.483c4.177 0 8.027-1.408 11.113-3.748.094.253.146.503.146.748zm-11.258 1H23.258c-6.693 0-12.475-4.012-14.959-9.71C12.844 39.922 21.655 43 32 43s19.156-3.078 23.701-7.71C53.216 40.988 47.434 45 40.742 45zM61 33c0 .552-.449 1-1 1h-1.724c.448-1.529.711-3.134.724-4.799V29c0-.216-.011-.428-.016-.643.005-.119.016-.237.016-.357 0-.413-.037-.82-.093-1.223A29.089 29.089 0 0 0 58.56 24H60c.551 0 1 .448 1 1z"/></svg>